<svg xmlns="http://www.w3.org/2000/svg" xmlns:xlink="http://www.w3.org/1999/xlink" version="1.1" id="Layer_1" x="0px" y="0px" width="100px" height="100px" viewBox="0 0 100 100" enable-background="new 0 0 100 100" xml:space="preserve">
<path fill="#000000" d="M49.072,13.574c2.793,0,4.45,3.975,4.45,3.975l3.734,10.293l0.071-0.019l0.607,14.341l0.011,0.013  l-0.602,4.887c0.168,0.017,0.34,0.035,0.516,0.057l1.146-2.768l2.329-9.821l-0.915-7.844c0,0-0.352-4.534,2.944-5.132  c0.218-0.039,0.423-0.058,0.618-0.058c2.771,0,3.408,3.68,3.408,3.68l1.007,8.65l0.067-0.007L65.799,45.39l0.008,0.015l-1.493,3.548  c0.23,0.101,0.463,0.214,0.699,0.325l0.005,0.01l4.291-8.344l0.949-7.206c0,0,0.688-4.019,3.675-4.019c0.037,0,0.075,0,0.114,0.002  c3.081,0.104,2.781,4.015,2.781,4.015l-1.045,7.93l0.061,0.009l-4.987,9.827l0.005,0.011l-2.382,3.217  c0.62,8.123-5.132,22.875-4.488,27.058c0.448,2.916-7.196,4.64-14.348,4.64c-6.093,0-11.83-1.252-11.894-4.087  c-0.139-6.162-1.906-9.134-1.906-9.134l-11.311-9.109l0.033-0.027l-1.237-8.435c0,0-0.893-6.363,1.778-6.488  c0.062-0.003,0.124-0.004,0.185-0.004c3.66,0,4.775,5.247,4.775,5.247l0.659,4.505l2.233,1.732c0.278-0.055,2.995-0.611,6.591-2.656  c2.64-1.502,2.761-5.971,2.66-8.06l-0.651-6.17l-2.926-10.28l-5.154-7.094c0,0-2.801-4.173,0.229-6.068  c0.616-0.385,1.23-0.538,1.819-0.538c2.311,0,4.224,2.362,4.224,2.362l5.688,7.825l0.065-0.033l3.523,12.083l0.012,0.005  l0.521,5.273l0.631-5.391l-0.444-12.183l-3.383-9.328c0,0-1.766-5.423,1.657-6.615C48.388,13.63,48.738,13.574,49.072,13.574   M49.072,11.574L49.072,11.574c-0.57,0-1.145,0.099-1.707,0.295c-3.624,1.262-4.044,5.614-2.902,9.123  c0.007,0.021,0.014,0.042,0.021,0.062l3.276,9.033l0.018,0.477l-0.354-1.212c-0.117-0.4-0.354-0.75-0.674-1.005l-5.382-7.403  c-0.021-0.028-0.042-0.056-0.063-0.083c-0.257-0.317-2.604-3.104-5.778-3.104c-1.017,0-1.986,0.283-2.88,0.842  c-1.182,0.739-1.954,1.819-2.232,3.124c-0.577,2.703,1.198,5.451,1.403,5.755c0.014,0.021,0.028,0.041,0.042,0.061l4.946,6.807  l2.782,9.773l0.627,5.94c0.14,3.098-0.507,5.517-1.654,6.169c-2.254,1.282-4.113,1.926-5.141,2.221l-0.832-0.646l-0.542-3.708  c-0.006-0.042-0.014-0.084-0.023-0.126c-0.539-2.537-2.563-6.83-6.731-6.831c-0.093,0-0.186,0.002-0.28,0.007  c-1.001,0.047-1.877,0.488-2.53,1.276c-1.733,2.09-1.306,6.259-1.134,7.488l1.201,8.189c0.006,0.599,0.263,1.177,0.729,1.552  l10.978,8.841c0.369,0.803,1.394,3.418,1.494,7.89c0.124,5.454,9.757,6.042,13.894,6.042c5.555,0,12.921-1.025,15.401-3.915  c0.974-1.136,1.04-2.274,0.924-3.029c-0.225-1.461,0.791-5.565,1.773-9.534c1.379-5.572,2.932-11.849,2.773-16.607l1.954-2.638  c0.106-0.144,0.191-0.299,0.255-0.461l4.903-9.662c0.181-0.356,0.248-0.752,0.203-1.139l0.98-7.444  c0.005-0.036,0.009-0.072,0.012-0.108c0.022-0.293,0.174-2.917-1.402-4.677c-0.831-0.929-1.975-1.444-3.306-1.489  c-0.061-0.002-0.122-0.003-0.182-0.003c-1.8,0-3.101,0.85-4.004,1.965l-0.552-4.738c-0.004-0.037-0.01-0.073-0.016-0.11  c-0.319-1.846-1.854-5.338-5.378-5.338c-0.318,0-0.646,0.03-0.975,0.089c-3.194,0.58-4.314,3.444-4.554,5.694l-3.053-8.415  c-0.011-0.029-0.021-0.059-0.034-0.087C55.146,16.247,53.082,11.574,49.072,11.574L49.072,11.574z"/>
</svg>