<?xml version="1.0" encoding="UTF-8" standalone="no"?>
<svg width="708px" height="160px" viewBox="0 0 708 160" version="1.1" xmlns="http://www.w3.org/2000/svg" xmlns:xlink="http://www.w3.org/1999/xlink" xmlns:sketch="http://www.bohemiancoding.com/sketch/ns">
    <!-- Generator: Sketch 3.0.2 (7799) - http://www.bohemiancoding.com/sketch -->
    <title>Artboard 1</title>
    <description>Created with Sketch.</description>
    <defs></defs>
    <g id="Page-1" stroke="none" stroke-width="1" fill="none" fill-rule="evenodd" sketch:type="MSPage">
        <g id="Artboard-1" sketch:type="MSArtboardGroup" fill="#000000">
            <path d="M209.781317,69.566955 C209.781317,63.595033 207.509337,57.9575535 203.502353,52.9704812 C201.511065,41.7786708 191.182404,32.6711202 177.54849,29.5595123 C170.124383,22.7487127 153.406923,18 133.959832,18 C121.255456,18 109.720632,20.0288275 101.171723,23.3344489 C99.9330154,23.2513002 98.6617643,23.2124975 97.3620372,23.2124975 C87.3364423,23.2124975 78.8607568,25.6773935 76.0640043,29.0624681 C65.9814574,31.895066 57.9939324,38.813035 54.6235914,47.5935342 C48.1290236,52.0946486 44,58.8130609 44,66.3278525 C44,79.8792374 57.4203439,90.8677955 73.9730505,90.8677955 C76.1738404,90.8677955 78.3156443,90.666391 80.3801562,90.2968414 C79.8248737,91.6678705 79.5238414,93.0980275 79.5238414,94.5632918 C79.5238414,105.145345 94.7646169,113.722592 113.566929,113.722592 C118.804484,113.722592 123.765415,113.055555 128.19547,111.867453 C135.218879,119.953199 147.57544,135.472436 151.558015,148.683835 L160.936797,148.683835 C160.936797,148.683835 158.980088,136.290988 154.314088,123.295775 C158.178691,125.309821 162.877235,126.496075 167.948002,126.496075 C181.118163,126.496075 191.796673,118.521194 191.796673,108.67824 C191.796673,104.884813 190.204049,101.3667 187.494759,98.4768224 C201.057483,91.7473236 209.781317,81.3056989 209.781317,69.566955 L209.781317,69.566955 Z M142.671461,81.6641621 C136.892862,67.2461833 147.180843,55.950899 147.6568,55.4464637 C148.734821,54.3858563 149.526047,53.2125362 149.961324,51.9560675 L146.654037,51.9560675 C144.658681,55.4926574 138.235303,58.1626535 130.851877,58.1626535 C123.46845,58.1626535 117.047107,55.4926574 115.047683,51.9560675 L111.74243,51.9560675 C112.208216,53.3086192 113.088939,54.5613924 114.291034,55.6774323 C115.639577,57.1814992 124.497655,67.8023555 119.337393,81.2853737 C109.108398,77.0780512 101.987357,67.7339889 101.987357,56.8673821 C101.987357,42.070615 115.192097,30.0713386 131.484451,30.0713386 C147.776806,30.0713386 160.981545,42.070615 160.981545,56.8673821 C160.983579,68.0684313 153.413025,77.6600918 142.671461,81.6641621 L142.671461,81.6641621 Z M120.301509,59.1770672 C123.32607,60.2857161 126.932355,60.9268847 130.853911,60.9268847 C134.862928,60.9268847 138.546506,60.2561521 141.61378,59.1013096 C138.723464,64.2842431 135.883997,72.7543205 139.809621,82.5769496 C137.167452,83.2809417 134.374768,83.6634255 131.486485,83.6634255 C128.234116,83.6634255 125.107856,83.1793155 122.182961,82.2997874 C125.92349,72.6379124 123.149112,64.3193503 120.301509,59.1770672 L120.301509,59.1770672 Z M144.01797,89.7831674 C144.01797,91.2447362 142.708073,92.4328382 141.097144,92.4328382 L120.604576,92.4328382 C118.993646,92.4328382 117.685783,91.2447362 117.685783,89.7831674 L117.685783,88.1848652 C117.685783,86.719601 118.993646,85.5351944 120.604576,85.5351944 L141.097144,85.5351944 C142.708073,85.5351944 144.01797,86.719601 144.01797,88.1848652 L144.01797,89.7831674 L144.01797,89.7831674 Z M144.01797,98.5211683 C144.01797,99.9864326 142.708073,101.174535 141.097144,101.174535 L120.604576,101.174535 C118.993646,101.174535 117.685783,99.9864326 117.685783,98.5211683 L117.685783,96.9265617 C117.685783,95.4612974 118.993646,94.2731953 120.604576,94.2731953 L141.097144,94.2731953 C142.708073,94.2731953 144.01797,95.4612974 144.01797,96.9265617 L144.01797,98.5211683 L144.01797,98.5211683 Z" id="Shape" sketch:type="MSShapeGroup"></path>
            <path d="M410.5645,33.3188571 C392.937375,22.4895238 373.909625,17 354,17 C334.090375,17 315.062625,22.4895238 297.4355,33.3188571 C287.906063,39.1701905 278.999125,46.5560952 271,55.1646667 L271,76.4552857 C279.969187,65.0395714 290.56725,55.451619 302.156125,48.3277143 C318.304813,38.4029048 335.750375,33.375 354,33.375 C372.249625,33.375 389.695187,38.4091429 405.843875,48.3277143 C417.43275,55.451619 428.030813,65.0395714 437,76.4552857 L437,55.1646667 C429.000875,46.5560952 420.08875,39.1701905 410.5645,33.3188571 L410.5645,33.3188571 Z M354,48.1904762 C320.058188,48.1904762 289.929188,67.7905714 271,98.0952381 C289.929188,128.399905 320.058188,148 354,148 C387.941812,148 418.070812,128.399905 437,98.0952381 C418.070812,67.7905714 387.941812,48.1904762 354,48.1904762 L354,48.1904762 Z M396.407813,123.303381 C389.9805,127.252095 383.169313,130.296286 376.171375,132.342381 C368.96075,134.457095 361.501125,135.52381 354,135.52381 C346.498875,135.52381 339.03925,134.450857 331.828625,132.342381 C324.8255,130.290048 318.0195,127.252095 311.592188,123.303381 C301.378,117.027857 292.10275,108.40681 284.414875,98.0952381 C292.10275,87.7836667 301.372813,79.1688571 311.592188,72.8870952 C316.83675,69.6682381 322.330313,67.0482381 327.9795,65.0832381 C324.758063,70.9782381 322.880188,78.0335238 322.880188,85.6190476 C322.880188,106.292095 336.813813,123.047619 354.005188,123.047619 C371.196563,123.047619 385.130188,106.292095 385.130188,85.6190476 C385.130188,78.0335238 383.252313,70.9782381 380.030875,65.0832381 C385.680063,67.0544762 391.173625,69.6682381 396.418188,72.8870952 C406.632375,79.162619 415.907625,87.7836667 423.5955,98.0952381 C415.907625,108.40681 406.637563,117.021619 396.418188,123.303381 L396.407813,123.303381 Z M343.625,73.1428571 C349.357188,73.1428571 354,78.7259524 354,85.6190476 C354,92.5121429 349.357188,98.0952381 343.625,98.0952381 C337.892812,98.0952381 333.25,92.5121429 333.25,85.6190476 C333.25,78.7259524 337.892812,73.1428571 343.625,73.1428571 L343.625,73.1428571 Z" id="Shape" sketch:type="MSShapeGroup"></path>
            <path d="M653.625,148 L508.375,148 C502.642812,148 498,144.336094 498,139.8125 L498,25.1875 C498,20.6639063 502.642812,17 508.375,17 L612.125,17 L591.375,33.375 L518.75,33.375 L518.75,131.625 L643.25,131.625 L643.25,74.3125 L664,57.9375 L664,139.8125 C664,144.336094 659.357188,148 653.625,148 L653.625,148 Z M539.5,115.25 L539.5,90.6875 L632.875,17 L643.25,17 L664,33.375 L664,41.5625 L570.625,115.25 L539.5,115.25 L539.5,115.25 Z M586.1875,86.59375 L643.25,41.5625 L632.875,33.375 L575.8125,78.40625 L586.1875,86.59375 L586.1875,86.59375 Z M560.25,90.6875 L549.875,98.875 L549.875,107.0625 L560.25,107.0625 L570.625,98.875 L560.25,90.6875 L560.25,90.6875 Z" id="Shape-2" sketch:type="MSShapeGroup"></path>
        </g>
    </g>
</svg>